<svg xmlns="http://www.w3.org/2000/svg" width="800" height="500" viewBox="0 0 800 500">
  <defs>
    <linearGradient id="bg" x1="0%" y1="0%" x2="100%" y2="100%">
      <stop offset="0%" style="stop-color:#020617;stop-opacity:1" />
      <stop offset="100%" style="stop-color:#0c1445;stop-opacity:1" />
    </linearGradient>
    <linearGradient id="accent" x1="0%" y1="0%" x2="100%" y2="0%">
      <stop offset="0%" style="stop-color:#f97316;stop-opacity:1" />
      <stop offset="100%" style="stop-color:#eab308;stop-opacity:1" />
    </linearGradient>
  </defs>
  <rect width="800" height="500" fill="url(#bg)"/>
  <!-- Server rack icon -->
  <rect x="340" y="140" width="120" height="22" rx="4" fill="none" stroke="#f97316" stroke-width="2"/>
  <circle cx="448" cy="151" r="4" fill="#22c55e"/>
  <rect x="342" y="145" width="70" height="12" rx="2" fill="#f97316" opacity="0.3"/>
  <rect x="340" y="170" width="120" height="22" rx="4" fill="none" stroke="#f97316" stroke-width="2"/>
  <circle cx="448" cy="181" r="4" fill="#22c55e"/>
  <rect x="342" y="175" width="55" height="12" rx="2" fill="#f97316" opacity="0.3"/>
  <rect x="340" y="200" width="120" height="22" rx="4" fill="none" stroke="#f97316" stroke-width="2"/>
  <circle cx="448" cy="211" r="4" fill="#eab308"/>
  <rect x="342" y="205" width="80" height="12" rx="2" fill="#f97316" opacity="0.3"/>
  <!-- Signal waves -->
  <path d="M310 175 Q295 175 295 190 Q295 205 310 205" fill="none" stroke="#f97316" stroke-width="2" opacity="0.5"/>
  <path d="M275 165 Q250 165 250 190 Q250 215 275 215" fill="none" stroke="#f97316" stroke-width="2" opacity="0.3"/>
  <!-- Title -->
  <text x="400" y="268" font-family="Arial, sans-serif" font-size="28" font-weight="bold" fill="white" text-anchor="middle">FireViston TV Server</text>
  <text x="400" y="300" font-family="Arial, sans-serif" font-size="16" fill="#fbbf24" text-anchor="middle">Streaming Backend Infrastructure</text>
  <!-- Bottom accent bar -->
  <rect x="0" y="480" width="800" height="20" fill="url(#accent)" opacity="0.6"/>
  <text x="400" y="465" font-family="Arial, sans-serif" font-size="13" fill="#d97706" text-anchor="middle">tv.cadnative.com</text>
</svg>
